<?xml version="1.0" encoding="UTF-8" standalone="no"?>
<svg width="32px" height="32px" viewBox="0 0 32 32" version="1.1" xmlns="http://www.w3.org/2000/svg" xmlns:xlink="http://www.w3.org/1999/xlink">
    <!-- Generator: Sketch 47 (45396) - http://www.bohemiancoding.com/sketch -->
    <title>Group 5</title>
    <desc>Created with Sketch.</desc>
    <defs>
        <linearGradient x1="121.870767%" y1="50.0000623%" x2="-8.13548721%" y2="50.0000623%" id="linearGradient-1">
            <stop stop-color="#47B4E0" offset="0%"></stop>
            <stop stop-color="#1588E0" offset="17.18%"></stop>
            <stop stop-color="#6EB4E0" offset="100%"></stop>
        </linearGradient>
        <linearGradient x1="49.9981983%" y1="99.9981453%" x2="49.9981983%" y2="0.00156952896%" id="linearGradient-2">
            <stop stop-color="#F0776F" offset="3.22%"></stop>
            <stop stop-color="#F0656F" offset="50.32%"></stop>
            <stop stop-color="#F0606F" offset="100%"></stop>
        </linearGradient>
        <linearGradient x1="49.9999999%" y1="0.000675229319%" x2="49.9999999%" y2="99.9996626%" id="linearGradient-3">
            <stop stop-color="#F0776F" offset="3.22%"></stop>
            <stop stop-color="#F0656F" offset="50.32%"></stop>
            <stop stop-color="#F0606F" offset="100%"></stop>
        </linearGradient>
    </defs>
    <g id="Ant-Design-Pro-3.0" stroke="none" stroke-width="1" fill="none" fill-rule="evenodd">
        <g id="带筛选列表-卡片带封面-" transform="translate(-24.000000, -17.000000)" fill-rule="nonzero">
            <g id="Group-11" transform="translate(24.000000, 17.000000)">
                <g id="Group-5">
                    <g id="T1B9hfXcdvXXXXXXXX">
                        <g id="Group">
                            <path d="M16.9951372,0.635294118 L23.0999216,6.74007844 C23.6730981,7.3132549 23.6730981,8.24219607 23.0999216,8.81505882 L23.0999216,8.81505882 C22.5267451,9.3882353 21.5978039,9.3882353 21.0249412,8.81505882 L16.9951372,4.78556863 C16.4219607,4.21239216 15.4930196,4.21239216 14.9201569,4.78556863 L4.78556863,14.9201569 C4.21239216,15.4933333 4.21239216,16.4222745 4.78556863,16.9951372 L14.9201569,27.1297255 C15.4933333,27.7029019 16.4222745,27.7029019 16.9951372,27.1297255 L21.0249412,23.0999216 C21.5981177,22.5267451 22.5270588,22.5267451 23.0999216,23.0999216 L23.0999216,23.0999216 C23.6730981,23.6730981 23.6730981,24.6020393 23.0999216,25.1749019 L16.9951372,31.2796863 C16.4219607,31.8528628 15.4930196,31.8528628 14.9201569,31.2796863 L0.635294118,16.9951372 C0.062117647,16.4219607 0.062117647,15.4930196 0.635294118,14.9201569 L14.9198431,0.635607844 C15.4930196,0.0624313726 16.4222745,0.0624313726 16.9951372,0.635294118 Z" id="Shape" fill="url(#linearGradient-1)"></path>
                            <path d="M25.1752156,10.8903529 L25.1752156,10.8903529 C25.7483921,10.3171765 26.6773333,10.3171765 27.2501961,10.8903529 L31.28,14.9201569 C31.8531765,15.4933333 31.8531765,16.4222745 31.28,16.9951372 L27.2501961,21.0249412 C26.6770196,21.5981177 25.7480784,21.5981177 25.1752156,21.0249412 L25.1752156,21.0249412 C24.6020393,20.4517647 24.6020393,19.5228235 25.1752156,18.9499607 L27.1297255,16.995451 C27.7029019,16.4222745 27.7029019,15.4933333 27.1297255,14.9204706 L25.1752156,12.9659607 C24.6020393,12.3924706 24.6020393,11.4635294 25.1752156,10.8903529 Z" id="Shape" fill="url(#linearGradient-2)"></path>
                        </g>
                        <path d="M15.957647,20.6048628 C18.5242353,20.6048628 20.6048628,18.5242353 20.6048628,15.957647 C20.6048628,13.3910588 18.5242353,11.3104314 15.957647,11.3104314 C13.3910588,11.3104314 11.3104314,13.3910588 11.3104314,15.957647 C11.3104314,18.5242353 13.3910588,20.6048628 15.957647,20.6048628 Z M15.957647,18.3730196 C14.6236863,18.3730196 13.5422745,17.2916079 13.5422745,15.957647 C13.5422745,14.6236863 14.6236863,13.5422745 15.957647,13.5422745 C17.2916079,13.5422745 18.3730196,14.6236863 18.3730196,15.957647 C18.3730196,17.2916079 17.2916079,18.3730196 15.957647,18.3730196 Z" id="Shape" fill="url(#linearGradient-3)"></path>
                    </g>
                </g>
            </g>
        </g>
    </g>
</svg>